<svg viewBox="0 0 32 32" xmlns="http://www.w3.org/2000/svg" >

    <!-- Close Icon -->
    <symbol id="close" viewBox="0 0 32 32" width="24" height="24">
        <path fill="#e7e9fc" d="M32 16c0 8.837-7.163 16-16 16s-16-7.163-16-16c0-8.837 7.163-16 16-16s16 7.163 16 16z"></path>
        <path fill="none" stroke="rgba(0, 0, 0, 0.1)" stroke-linejoin="miter" stroke-linecap="butt" stroke-miterlimit="4" stroke-width="1.3333" d="M31.333 16c0 8.468-6.865 15.333-15.333 15.333s-15.333-6.865-15.333-15.333c0-8.468 6.865-15.333 15.333-15.333s15.333 6.865 15.333 15.333z"></path>
        <path fill="#2e2f42" d="M21.333 11.741l-1.074-1.074-4.259 4.259-4.259-4.259-1.074 1.074 4.259 4.259-4.259 4.259 1.074 1.074 4.259-4.259 4.259 4.259 1.074-1.074-4.259-4.259 4.259-4.259z"></path>
    </symbol>

    <!-- User Icon -->
    <symbol id="user" viewBox="0 0 18 18" width="18" height="18">
        <path d="M9 9C10.6575 9 12 7.6575 12 6C12 4.3425 10.6575 3 9 3C7.3425 3 6 4.3425 6 6C6 7.6575 7.3425 9 9 9ZM9 10.5C6.9975 10.5 3 11.505 3 13.5V14.25C3 14.6625 3.3375 15 3.75 15H14.25C14.6625 15 15 14.6625 15 14.25V13.5C15 11.505 11.0025 10.5 9 10.5Z" />
    </symbol>

    <!-- Phone Icon -->
    <symbol id="phone" viewBox="0 0 18 24" width="18" height="24">
        <g clip-path="url(#clip0_297083_8305)">
            <path d="M14.7263 13.8651L12.8881 13.6552C12.4467 13.6046 12.0125 13.7566 11.7013 14.0677L10.3697 15.3993C8.3217 14.3572 6.64276 12.6855 5.60067 10.6303L6.93947 9.29144C7.25065 8.98025 7.40263 8.54605 7.35197 8.1046L7.1421 6.28092C7.05526 5.55 6.44013 5 5.70198 5H4.45002C3.63226 5 2.952 5.68026 3.00266 6.49802C3.38621 12.6783 8.32894 17.6138 14.5019 17.9973C15.3197 18.048 15.9999 17.3677 15.9999 16.55V15.298C16.0072 14.5671 15.4572 13.952 14.7263 13.8651Z" />
        </g>
        <defs>
            <clipPath id="clip0_297083_8305">
            <rect width="18" height="24" fill="white" />
            </clipPath>
        </defs>
    </symbol>

    <!-- Email Icon -->
    <symbol id="email" viewBox="0 0 18 24">
        <g clip-path="url(#clip0_297083_8311)">
            <path d="M15 6H3C2.175 6 1.5075 6.675 1.5075 7.5L1.5 16.5C1.5 17.325 2.175 18 3 18H15C15.825 18 16.5 17.325 16.5 16.5V7.5C16.5 6.675 15.825 6 15 6ZM14.7 9.1875L9.3975 12.5025C9.1575 12.6525 8.8425 12.6525 8.6025 12.5025L3.3 9.1875C3.1125 9.0675 3 8.865 3 8.6475C3 8.145 3.5475 7.845 3.975 8.1075L9 11.25L14.025 8.1075C14.4525 7.845 15 8.145 15 8.6475C15 8.865 14.8875 9.0675 14.7 9.1875Z" />
        </g>
        <defs>
            <clipPath id="clip0_297083_8311">
            <rect width="18" height="24" fill="white" />
            </clipPath>
        </defs>
    </symbol>

    <!-- Arrow Right (subscribe) Icon -->
    <symbol id="subscribe" viewBox="0 0 24 24" width="24" height="24">
        <path d="M24 2L0 13.25L7.66994 15.6172L19.5 6.375L10.5017 16.4913L10.509 16.4936L10.5 16.4913V22L14.8013 17.8183L20.2501 19.5L24 2Z" fill="white" />
    </symbol>

</svg>